<svg xmlns:xlink="http://www.w3.org/1999/xlink" xmlns="http://www.w3.org/2000/svg" xml:space="preserve" width="153.067" height="49.55" shape-rendering="geometricPrecision" text-rendering="geometricPrecision" image-rendering="optimizeQuality" fill-rule="evenodd" clip-rule="evenodd" viewBox="0 0 474.46 153.59"><g fill-rule="nonzero"><path fill="#2B2A29" d="M29.41 153.59c-1.59 0-3.1-.16-4.51-.46-1.42-.3-2.75-.75-3.99-1.36-1.23-.61-2.39-1.36-3.45-2.27l2.42-3.07a13.48 13.48 0 0 0 4.36 2.59c1.59.58 3.3.86 5.17.86 2.62 0 4.64-.5 6.06-1.51 1.43-1 2.14-2.41 2.14-4.23v-.02c0-1.21-.32-2.17-.95-2.88-.63-.71-1.45-1.24-2.46-1.59-1.01-.36-2.3-.68-3.89-.97-.04-.01-.09-.02-.14-.03a.658.658 0 0 1-.15-.04l-.5-.08c-2.27-.41-4.09-.85-5.47-1.33-1.39-.47-2.57-1.31-3.55-2.51-.98-1.2-1.47-2.89-1.47-5.07v-.02c0-2.03.46-3.78 1.37-5.22.91-1.44 2.25-2.55 4-3.3 1.76-.76 3.86-1.14 6.33-1.14 1.18 0 2.33.13 3.47.39 1.15.25 2.27.64 3.38 1.14 1.11.5 2.2 1.15 3.28 1.92l-2.27 3.11c-1.35-.95-2.67-1.67-3.97-2.14-1.3-.48-2.59-.71-3.89-.71-2.47 0-4.38.5-5.75 1.52-1.37 1.01-2.05 2.45-2.05 4.31v.02c0 1.18.35 2.11 1.04 2.8.69.68 1.56 1.19 2.59 1.52 1.03.32 2.45.66 4.24 1.03.06.01.12.03.19.03.06.01.12.02.2.04.08.02.16.03.25.06.09.02.18.04.25.06 2.04.4 3.73.88 5.09 1.44a7.84 7.84 0 0 1 3.39 2.62c.9 1.2 1.36 2.84 1.36 4.91v.05c0 2-.47 3.72-1.42 5.15-.96 1.43-2.34 2.51-4.14 3.27-1.81.75-3.99 1.12-6.54 1.12zm77.71-31.29h3.95v30.95h-3.95V122.3zm-9.66-2.02h23.26V124H97.46v-3.72zm83.73 15.3h11.24c1.06 0 1.99-.24 2.8-.72.8-.48 1.41-1.16 1.86-2.04.43-.88.66-1.89.68-3.04 0-1.15-.22-2.17-.66-3.05-.44-.89-1.06-1.56-1.87-2.04-.8-.47-1.73-.71-2.81-.71h-11.24v-3.72h11.07c1.9 0 3.57.39 5.02 1.19 1.44.78 2.56 1.9 3.35 3.34.8 1.44 1.19 3.11 1.19 5 0 1.89-.39 3.55-1.19 5a8.156 8.156 0 0 1-3.37 3.34c-1.45.78-3.12 1.18-5.01 1.18h-11.07v-3.71zm-2.02-15.33h3.95v32.99h-3.95v-32.99zm11.8 18.02 3.81-1.04 8.43 16h-4.7l-7.55-14.97zm72.38-18h3.95v32.97h-3.95v-32.97zm2.25 29.25h18.94v3.71H265.6v-3.71zm0-14.51h16.44v3.71H265.6v-3.71zm0-14.74h18.94v3.72H265.6v-3.72zm88.4 0h3.94l12.16 32.97h-4.31l-9.82-28.07-9.82 28.07h-4.31L354 120.27zm-6.55 21.63h17.34v3.72h-17.34v-3.72zm105.69-21.63h3.88v32.97h-3.88v-26.5l.28 1.45-9.02 20.47h-2.77l-9.02-20.02.3-1.9v26.5H429v-32.97h3.88l10.14 22.79 10.13-22.79z"/><path fill="#F90" d="M0 93.21V14.23C.02 7.12 3.74 3.28 10.69 2.27h10.47c15.76 0 26.91.73 33.44 2.22 6.55 1.47 12.28 3.95 17.23 7.41 6.43 4.5 11.31 10.25 14.62 17.23 3.33 7 4.99 15.01 4.99 23.97 0 8.97-1.66 16.94-4.99 23.95-3.31 7.01-8.19 12.76-14.62 17.25-4.9 3.41-10.49 5.85-16.78 7.31-6.27 1.44-16.02 2.18-29.23 2.18H13.25C4.37 103.61.49 99.68 0 93.21zm474.46 0V14.23c-.02-7.11-3.74-10.95-10.69-11.96H453.3c-15.76 0-26.9.73-33.44 2.22-6.55 1.47-12.28 3.95-17.23 7.41-6.43 4.5-11.31 10.25-14.62 17.23-3.33 7-4.99 15.01-4.99 23.97 0 8.97 1.66 16.94 4.99 23.95 3.31 7.01 8.19 12.76 14.62 17.25 4.9 3.41 10.49 5.85 16.78 7.31 6.27 1.44 16.02 2.18 29.22 2.18h12.57c8.88-.18 12.76-4.11 13.25-10.58zM224.07 53.24c0 7.31-1.35 14.15-4.02 20.52-2.68 6.39-6.58 12.09-11.72 17.13-5.18 4.99-11.1 8.82-17.75 11.55-6.65 2.69-13.56 4.05-20.7 4.05-7.27 0-14.22-1.35-20.85-4.05-6.62-2.72-12.44-6.56-17.49-11.55-5.23-5.04-9.18-10.77-11.91-17.21-2.7-6.41-4.04-13.23-4.04-20.45 0-7.26 1.35-14.08 4.04-20.49 2.72-6.39 6.68-12.12 11.91-17.16 5.04-5 10.86-8.83 17.49-11.55 6.63-2.7 13.59-4.05 20.85-4.05 7.19 0 14.15 1.35 20.82 4.05 6.67 2.72 12.54 6.55 17.63 11.55 5.09 4.99 8.97 10.69 11.69 17.13 2.7 6.41 4.05 13.25 4.05 20.51zm132.61 0c0 7.31-1.35 14.15-4.02 20.52-2.68 6.39-6.58 12.09-11.71 17.13-5.18 4.99-11.1 8.82-17.75 11.55-6.65 2.69-13.56 4.05-20.71 4.05-7.27 0-14.22-1.35-20.85-4.05-6.62-2.72-12.44-6.56-17.49-11.55-5.23-5.04-9.18-10.77-11.91-17.21-2.69-6.41-4.04-13.23-4.04-20.45 0-7.26 1.35-14.08 4.04-20.49 2.72-6.39 6.68-12.12 11.91-17.16 5.04-5 10.86-8.83 17.49-11.55 6.63-2.7 13.59-4.05 20.85-4.05 7.19 0 14.15 1.35 20.82 4.05 6.67 2.72 12.54 6.55 17.63 11.55 5.09 4.99 8.97 10.69 11.69 17.13 2.7 6.41 4.05 13.25 4.05 20.51z"/></g></svg>